<?xml version="1.0" standalone="no"?>
<!DOCTYPE svg PUBLIC "-//W3C//DTD SVG 20010904//EN"
 "http://www.w3.org/TR/2001/REC-SVG-20010904/DTD/svg10.dtd">
<svg version="1.0" xmlns="http://www.w3.org/2000/svg"
 width="1598.000000pt" height="1598.000000pt" viewBox="0 0 1598.000000 1598.000000"
 preserveAspectRatio="xMidYMid meet">

<g transform="translate(0.000000,1598.000000) scale(0.100000,-0.100000)"
fill="#000000" stroke="none">
<path d="M0 7995 l0 -7985 7985 0 7985 0 0 7985 0 7985 -7985 0 -7985 0 0
-7985z m8556 5771 c767 -73 1453 -271 2134 -617 157 -79 484 -273 620 -367
1355 -937 2243 -2346 2485 -3947 51 -339 59 -454 59 -880 0 -417 -7 -531 -55
-858 -138 -954 -534 -1897 -1120 -2667 -165 -218 -304 -376 -529 -601 -450
-451 -920 -794 -1478 -1078 -654 -332 -1311 -523 -2082 -607 -229 -25 -751
-30 -1000 -10 -1252 101 -2371 558 -3326 1357 -962 805 -1653 1938 -1929 3162
-161 711 -188 1475 -79 2187 220 1432 953 2715 2079 3637 689 564 1504 964
2369 1163 333 76 620 116 1046 144 122 8 655 -4 806 -18z"/>
<path d="M7660 12319 c-620 -56 -1226 -239 -1743 -526 -168 -93 -448 -276
-572 -374 -868 -681 -1444 -1635 -1629 -2697 -50 -287 -60 -414 -60 -767 0
-353 10 -480 60 -767 324 -1857 1835 -3314 3699 -3567 229 -31 370 -41 610
-41 481 0 904 66 1352 211 769 249 1447 701 1976 1318 567 663 918 1469 1024
2356 25 213 25 768 0 975 -74 608 -250 1155 -533 1657 -64 114 -174 294 -191
313 -2 2 -450 -442 -996 -988 l-992 -992 -590 590 -590 591 994 988 993 988
-93 60 c-549 354 -1170 574 -1864 659 -146 18 -705 27 -855 13z"/>
</g>
</svg>
